<svg id="visual" viewBox="0 0 960 540" width="960" height="540" xmlns="http://www.w3.org/2000/svg" xmlns:xlink="http://www.w3.org/1999/xlink" version="1.1">
  <!-- Background Grid -->
  <rect width="960" height="540" fill="#001f2d"></rect>
  <g stroke="#003b46" stroke-width="1">
    <line x1="0" y1="54" x2="960" y2="54" />
    <line x1="0" y1="108" x2="960" y2="108" />
    <line x1="0" y1="162" x2="960" y2="162" />
    <line x1="0" y1="216" x2="960" y2="216" />
    <line x1="0" y1="270" x2="960" y2="270" />
    <line x1="0" y1="324" x2="960" y2="324" />
    <line x1="0" y1="378" x2="960" y2="378" />
    <line x1="0" y1="432" x2="960" y2="432" />
    <line x1="0" y1="486" x2="960" y2="486" />
    <line x1="120" y1="0" x2="120" y2="540" />
    <line x1="240" y1="0" x2="240" y2="540" />
    <line x1="360" y1="0" x2="360" y2="540" />
    <line x1="480" y1="0" x2="480" y2="540" />
    <line x1="600" y1="0" x2="600" y2="540" />
    <line x1="720" y1="0" x2="720" y2="540" />
    <line x1="840" y1="0" x2="840" y2="540" />
  </g>
  
  <!-- Waveform Pattern -->
  <path d="M0 270 Q120 200, 240 270 T480 270 T720 270 T960 270" fill="none" stroke="#00ffcc" stroke-width="3" />
  <path d="M0 300 Q120 370, 240 300 T480 300 T720 300 T960 300" fill="none" stroke="#00ffcc" stroke-width="3" />
  
  <!-- Circuit Node Pattern -->
  <circle cx="120" cy="270" r="8" fill="#ffcc00" />
  <circle cx="240" cy="300" r="8" fill="#ffcc00" />
  <circle cx="360" cy="270" r="8" fill="#ffcc00" />
  <circle cx="480" cy="300" r="8" fill="#ffcc00" />
  <circle cx="600" cy="270" r="8" fill="#ffcc00" />
  <circle cx="720" cy="300" r="8" fill="#ffcc00" />
  <circle cx="840" cy="270" r="8" fill="#ffcc00" />
  
  <!-- Interconnections -->
  <line x1="120" y1="270" x2="240" y2="300" stroke="#ffcc00" stroke-width="2" />
  <line x1="240" y1="300" x2="360" y2="270" stroke="#ffcc00" stroke-width="2" />
  <line x1="360" y1="270" x2="480" y2="300" stroke="#ffcc00" stroke-width="2" />
  <line x1="480" y1="300" x2="600" y2="270" stroke="#ffcc00" stroke-width="2" />
  <line x1="600" y1="270" x2="720" y2="300" stroke="#ffcc00" stroke-width="2" />
  <line x1="720" y1="300" x2="840" y2="270" stroke="#ffcc00" stroke-width="2" />
</svg>
